<?xml version="1.0" encoding="UTF-8" standalone="no"?>
<!DOCTYPE svg PUBLIC "-//W3C//DTD SVG 1.1//EN" "http://www.w3.org/Graphics/SVG/1.1/DTD/svg11.dtd">
<svg width="100%" height="100%" viewBox="0 0 502 311" version="1.1" xmlns="http://www.w3.org/2000/svg" xmlns:xlink="http://www.w3.org/1999/xlink" xml:space="preserve" xmlns:serif="http://www.serif.com/" style="fill-rule:evenodd;clip-rule:evenodd;stroke-linejoin:round;stroke-miterlimit:2;">
    <g transform="matrix(1,0,0,1,-57.8145,2.70339e-14)">
        <g transform="matrix(13.0208,0,0,13.0208,234.662,197.402)">
            <path d="M0,-6.432L0.015,-6.414C-0.028,-6.37 -0.073,-6.328 -0.112,-6.282C-0.325,-6.032 -0.55,-5.79 -0.746,-5.529C-0.993,-5.2 -1.177,-4.836 -1.264,-4.43C-1.393,-3.836 -1.179,-3.341 -0.656,-3.037C-0.565,-2.983 -0.469,-2.939 -0.371,-2.899C0.058,-2.726 0.51,-2.671 0.967,-2.654C1.601,-2.63 2.227,-2.703 2.849,-2.821C3.994,-3.039 5.087,-3.425 6.136,-3.932C6.877,-4.289 7.583,-4.707 8.241,-5.204C8.281,-5.234 8.319,-5.269 8.357,-5.302C8.307,-5.302 8.275,-5.283 8.246,-5.262C6.822,-4.313 5.276,-3.657 3.594,-3.334C2.887,-3.199 2.174,-3.148 1.458,-3.255C1.239,-3.288 1.021,-3.328 0.818,-3.421C1.094,-3.398 1.367,-3.363 1.641,-3.356C2.151,-3.342 2.657,-3.404 3.157,-3.505C4.884,-3.853 6.453,-4.552 7.851,-5.628C8.429,-6.074 8.942,-6.586 9.349,-7.198C9.584,-7.555 9.772,-7.933 9.844,-8.36C9.924,-8.839 9.822,-9.268 9.458,-9.61C9.142,-9.907 8.753,-10.046 8.334,-10.118C8.356,-10.097 8.383,-10.085 8.408,-10.073C8.538,-10.013 8.675,-9.966 8.797,-9.891C9.25,-9.611 9.459,-9.209 9.388,-8.67C9.356,-8.446 9.28,-8.239 9.179,-8.039C8.947,-7.585 8.624,-7.201 8.263,-6.847C8.249,-6.834 8.232,-6.827 8.218,-6.816C8.23,-6.874 8.261,-6.913 8.291,-6.954C8.406,-7.119 8.53,-7.279 8.636,-7.45C8.791,-7.699 8.901,-7.968 8.953,-8.259C9.048,-8.779 8.859,-9.208 8.407,-9.477C8.289,-9.547 8.162,-9.604 8.032,-9.649C7.725,-9.758 7.403,-9.797 7.079,-9.809C6.208,-9.84 5.357,-9.697 4.52,-9.476C3.494,-9.207 2.52,-8.813 1.584,-8.319C1.426,-8.235 1.271,-8.143 1.113,-8.056C1.118,-8.046 1.123,-8.037 1.128,-8.028C1.17,-8.047 1.213,-8.064 1.254,-8.085C1.967,-8.463 2.711,-8.767 3.483,-9C4.27,-9.236 5.067,-9.392 5.893,-9.371C6.003,-9.369 6.112,-9.362 6.222,-9.357C6.173,-9.334 6.125,-9.335 6.078,-9.334C5.652,-9.328 5.232,-9.275 4.816,-9.19C3.419,-8.908 2.124,-8.369 0.926,-7.6C0.1,-7.072 -0.646,-6.446 -1.262,-5.675C-1.551,-5.312 -1.801,-4.926 -1.961,-4.488C-2.092,-4.134 -2.156,-3.772 -2.076,-3.396C-1.988,-2.977 -1.739,-2.681 -1.371,-2.476C-1.378,-2.5 -1.393,-2.518 -1.409,-2.535C-1.774,-2.879 -1.895,-3.304 -1.829,-3.793C-1.771,-4.218 -1.597,-4.596 -1.369,-4.952C-1.012,-5.511 -0.551,-5.977 -0.046,-6.404C-0.033,-6.415 -0.016,-6.423 0,-6.432M1.781,-9.545C1.662,-9.489 1.544,-9.432 1.424,-9.38C-0.86,-8.378 -2.917,-7.032 -4.742,-5.331C-5.758,-4.383 -6.663,-3.34 -7.376,-2.14C-7.79,-1.444 -8.131,-0.717 -8.325,0.073C-8.499,0.777 -8.55,1.486 -8.394,2.2C-8.212,3.033 -7.767,3.711 -7.146,4.28C-6.511,4.86 -5.774,5.276 -4.982,5.594C-4.143,5.933 -3.27,6.149 -2.377,6.291C-1.27,6.467 -0.153,6.531 0.969,6.509C2.062,6.489 3.148,6.398 4.231,6.241C7.125,5.821 9.919,5.033 12.628,3.942C15.498,2.786 18.195,1.314 20.676,-0.543C22.055,-1.576 23.337,-2.717 24.463,-4.026C24.535,-4.111 24.607,-4.196 24.678,-4.282C24.746,-4.363 24.812,-4.445 24.898,-4.516C24.875,-4.469 24.854,-4.42 24.828,-4.374C24.285,-3.395 23.616,-2.507 22.871,-1.674C21.621,-0.276 20.201,0.933 18.679,2.024C17.034,3.202 15.291,4.219 13.47,5.103C10.904,6.348 8.234,7.298 5.453,7.936C4.233,8.216 3.002,8.426 1.756,8.563C0.567,8.693 -0.624,8.748 -1.818,8.707C-3.352,8.656 -4.857,8.435 -6.312,7.918C-7.297,7.568 -8.218,7.095 -9.021,6.412C-9.601,5.918 -10.081,5.345 -10.365,4.627C-10.64,3.939 -10.736,3.226 -10.685,2.49C-10.607,1.392 -10.257,0.376 -9.766,-0.598C-9.232,-1.65 -8.547,-2.598 -7.777,-3.487C-6.533,-4.921 -5.112,-6.158 -3.574,-7.265C-2.491,-8.043 -1.352,-8.725 -0.162,-9.327C1.516,-10.177 3.261,-10.852 5.085,-11.317C6.197,-11.601 7.326,-11.787 8.474,-11.837C9.249,-11.871 10.021,-11.845 10.78,-11.655C11.121,-11.569 11.45,-11.452 11.755,-11.276C12.181,-11.031 12.514,-10.701 12.708,-10.243C12.717,-10.224 12.727,-10.206 12.751,-10.192C12.747,-10.221 12.746,-10.252 12.737,-10.28C12.616,-10.698 12.364,-11.025 12.019,-11.283C11.594,-11.6 11.105,-11.771 10.593,-11.879C9.973,-12.008 9.343,-12.038 8.709,-12.019C6.875,-11.968 5.107,-11.571 3.371,-11.008C2.154,-10.613 0.971,-10.136 -0.175,-9.569C-3.686,-7.83 -6.756,-5.515 -9.321,-2.544C-10.362,-1.339 -11.245,-0.026 -11.927,1.417C-12.364,2.342 -12.69,3.304 -12.856,4.316C-13.09,5.735 -13.004,7.127 -12.448,8.471C-12.441,8.489 -12.436,8.509 -12.444,8.541C-12.473,8.51 -12.504,8.482 -12.528,8.449C-13.05,7.77 -13.366,7.003 -13.501,6.16C-13.687,5.006 -13.538,3.878 -13.201,2.768C-12.834,1.561 -12.264,0.452 -11.574,-0.599C-10.547,-2.165 -9.316,-3.557 -7.943,-4.825C-5.955,-6.661 -3.777,-8.234 -1.393,-9.517C-0.507,-9.995 0.398,-10.433 1.324,-10.828C2.849,-11.479 4.409,-12.013 6.02,-12.401C7.124,-12.667 8.241,-12.861 9.373,-12.952C10.13,-13.013 10.889,-13.032 11.646,-12.956C12.34,-12.886 13.018,-12.741 13.655,-12.446C14.048,-12.264 14.405,-12.028 14.7,-11.706C15.245,-11.108 15.418,-10.398 15.316,-9.612C15.24,-9.008 15.007,-8.457 14.711,-7.932C14.283,-7.173 13.739,-6.505 13.138,-5.88C12.234,-4.941 11.205,-4.161 10.104,-3.474C8.624,-2.554 7.051,-1.837 5.395,-1.304C5.339,-1.286 5.283,-1.266 5.229,-1.247C5.221,-1.244 5.215,-1.234 5.187,-1.209C5.255,-1.225 5.301,-1.233 5.345,-1.245C7.071,-1.735 8.71,-2.431 10.265,-3.328C11.455,-4.014 12.564,-4.809 13.55,-5.769C14.283,-6.483 14.935,-7.262 15.438,-8.159C15.702,-8.634 15.905,-9.132 16.015,-9.667C16.262,-10.881 15.787,-11.966 14.73,-12.608C14.188,-12.937 13.595,-13.127 12.977,-13.245C12.086,-13.415 11.186,-13.436 10.282,-13.388C7.692,-13.25 5.207,-12.632 2.772,-11.771C1.979,-11.49 1.198,-11.176 0.426,-10.84C-1.378,-10.053 -3.11,-9.13 -4.778,-8.084C-4.806,-8.067 -4.832,-8.05 -4.859,-8.035C-4.868,-8.03 -4.88,-8.032 -4.932,-8.026C-4.863,-8.077 -4.824,-8.11 -4.782,-8.139C-3.856,-8.767 -2.9,-9.347 -1.921,-9.886C-1.039,-10.371 -0.141,-10.826 0.777,-11.238C3.173,-12.312 5.643,-13.158 8.218,-13.682C9.195,-13.881 10.18,-14.027 11.174,-14.114C11.963,-14.183 12.752,-14.217 13.542,-14.167C14.595,-14.103 15.627,-13.931 16.601,-13.502C17.041,-13.308 17.449,-13.064 17.808,-12.742C18.627,-12.007 18.945,-11.078 18.849,-9.997C18.764,-9.064 18.409,-8.222 17.938,-7.424C17.296,-6.332 16.478,-5.381 15.55,-4.523C14.404,-3.463 13.127,-2.582 11.774,-1.808C9.679,-0.609 7.462,0.294 5.123,0.896C4.044,1.174 2.949,1.377 1.84,1.481C0.955,1.564 0.071,1.581 -0.813,1.485C-1.635,1.396 -2.437,1.226 -3.191,0.881C-3.608,0.691 -4.001,0.461 -4.323,0.127C-4.864,-0.434 -5.087,-1.105 -5.018,-1.879C-4.974,-2.355 -4.834,-2.802 -4.641,-3.236C-4.613,-3.297 -4.587,-3.358 -4.579,-3.43C-4.59,-3.416 -4.604,-3.405 -4.612,-3.39C-4.893,-2.881 -5.11,-2.348 -5.206,-1.771C-5.398,-0.597 -5.013,0.335 -4.038,1.018C-3.47,1.416 -2.832,1.661 -2.169,1.837C-1.223,2.086 -0.259,2.168 0.715,2.167C1.982,2.165 3.232,2.009 4.472,1.76C6.707,1.312 8.852,0.592 10.911,-0.385C12.705,-1.235 14.396,-2.249 15.938,-3.507C17.223,-4.557 18.365,-5.739 19.268,-7.14C19.744,-7.88 20.129,-8.662 20.344,-9.52C20.52,-10.219 20.563,-10.923 20.392,-11.63C20.229,-12.292 19.89,-12.851 19.396,-13.319C18.819,-13.865 18.139,-14.232 17.394,-14.488C16.657,-14.741 15.899,-14.888 15.127,-14.969C14.504,-15.035 13.879,-15.062 13.253,-15.056C13.201,-15.055 13.149,-15.056 13.095,-15.081C13.249,-15.095 13.404,-15.111 13.559,-15.12C14.48,-15.175 15.402,-15.18 16.324,-15.097C17.251,-15.014 18.162,-14.852 19.046,-14.554C19.861,-14.278 20.62,-13.896 21.271,-13.322C22.037,-12.647 22.53,-11.813 22.7,-10.8C22.803,-10.181 22.764,-9.563 22.636,-8.951C22.435,-7.985 22.045,-7.094 21.554,-6.245C20.769,-4.889 19.771,-3.705 18.614,-2.651C16.981,-1.163 15.168,0.064 13.227,1.108C10.788,2.42 8.229,3.421 5.538,4.081C4.425,4.355 3.3,4.556 2.159,4.679C1.245,4.777 0.329,4.823 -0.588,4.796C-1.84,4.757 -3.072,4.6 -4.263,4.195C-4.966,3.957 -5.625,3.635 -6.212,3.175C-6.796,2.719 -7.23,2.16 -7.434,1.436C-7.617,0.788 -7.606,0.137 -7.47,-0.516C-7.301,-1.319 -6.965,-2.055 -6.544,-2.753C-5.956,-3.727 -5.228,-4.587 -4.41,-5.374C-3.012,-6.722 -1.453,-7.85 0.266,-8.755C0.729,-8.999 1.207,-9.217 1.677,-9.448C1.72,-9.469 1.79,-9.466 1.781,-9.545C1.841,-9.517 1.895,-9.522 1.951,-9.584C1.885,-9.569 1.833,-9.557 1.781,-9.545" style="fill:rgb(35,31,32);"/>
        </g>
    </g>
</svg>
