<?xml version="1.0" encoding="UTF-8" standalone="no"?>
<!DOCTYPE svg PUBLIC "-//W3C//DTD SVG 1.1//EN" "http://www.w3.org/Graphics/SVG/1.1/DTD/svg11.dtd">
<svg width="100%" height="100%" viewBox="0 0 900 80" version="1.1" xmlns="http://www.w3.org/2000/svg" xmlns:xlink="http://www.w3.org/1999/xlink" xml:space="preserve" xmlns:serif="http://www.serif.com/" style="fill-rule:evenodd;clip-rule:evenodd;stroke-linejoin:round;stroke-miterlimit:2;">
    <path d="M0,62L129,57L257,59L386,66L514,48L643,61L771,63L900,54L900,0L0,0L0,62Z" style="fill:rgb(35,31,32);fill-opacity:0.2;fill-rule:nonzero;"/>
    <path d="M0,39L129,52L257,43L386,39L514,41L643,52L771,45L900,43L900,0L0,0L0,39Z" style="fill:rgb(35,31,32);fill-opacity:0.4;fill-rule:nonzero;"/>
    <path d="M0,41L129,26L257,28L386,34L514,36L643,35L771,30L900,29L900,0L0,0L0,41Z" style="fill:rgb(35,31,32);fill-opacity:0.6;fill-rule:nonzero;"/>
    <path d="M0,19L129,19L257,18L386,28L514,24L643,27L771,19L900,29L900,0L0,0L0,19Z" style="fill:rgb(35,31,32);fill-opacity:0.8;fill-rule:nonzero;"/>
    <path d="M0,17L129,13L257,17L386,11L514,11L643,15L771,9L900,14L900,0L0,0L0,17Z" style="fill:rgb(35,31,32);fill-rule:nonzero;"/>
</svg>
