<?xml version="1.0" encoding="UTF-8" standalone="no"?>
<!DOCTYPE svg PUBLIC "-//W3C//DTD SVG 1.1//EN" "http://www.w3.org/Graphics/SVG/1.1/DTD/svg11.dtd">
<svg width="100%" height="100%" viewBox="0 0 219 287" version="1.1" xmlns="http://www.w3.org/2000/svg" xmlns:xlink="http://www.w3.org/1999/xlink" xml:space="preserve" xmlns:serif="http://www.serif.com/" style="fill-rule:evenodd;clip-rule:evenodd;stroke-linejoin:round;stroke-miterlimit:2;">
    <g id="Plan-de-travail1" serif:id="Plan de travail1" transform="matrix(1,0,0,1.22552,0,0)">
        <rect x="0" y="0" width="218.148" height="233.894" style="fill:none;"/>
        <clipPath id="_clip1">
            <rect x="0" y="0" width="218.148" height="233.894"/>
        </clipPath>
        <g clip-path="url(#_clip1)">
            <g transform="matrix(4.16667,0,0,3.39993,114.406,51.5445)">
                <path d="M0,-6.432L0.015,-6.414C-0.028,-6.37 -0.073,-6.328 -0.112,-6.282C-0.325,-6.032 -0.55,-5.79 -0.746,-5.529C-0.993,-5.2 -1.177,-4.836 -1.264,-4.43C-1.393,-3.836 -1.179,-3.341 -0.656,-3.037C-0.565,-2.983 -0.469,-2.939 -0.371,-2.899C0.058,-2.726 0.51,-2.671 0.967,-2.654C1.601,-2.63 2.227,-2.703 2.849,-2.821C3.994,-3.039 5.087,-3.425 6.136,-3.932C6.877,-4.289 7.583,-4.707 8.241,-5.204C8.281,-5.234 8.319,-5.269 8.357,-5.302C8.307,-5.302 8.275,-5.283 8.246,-5.262C6.822,-4.313 5.276,-3.657 3.594,-3.334C2.887,-3.199 2.174,-3.148 1.458,-3.255C1.239,-3.288 1.021,-3.328 0.818,-3.421C1.094,-3.398 1.367,-3.363 1.641,-3.356C2.151,-3.342 2.657,-3.404 3.157,-3.505C4.884,-3.853 6.453,-4.552 7.851,-5.628C8.429,-6.074 8.942,-6.586 9.349,-7.198C9.584,-7.555 9.772,-7.933 9.844,-8.36C9.924,-8.839 9.822,-9.268 9.458,-9.61C9.142,-9.907 8.753,-10.046 8.334,-10.118C8.356,-10.097 8.383,-10.085 8.408,-10.073C8.538,-10.013 8.675,-9.966 8.797,-9.891C9.25,-9.611 9.459,-9.209 9.388,-8.67C9.356,-8.446 9.28,-8.239 9.179,-8.039C8.947,-7.585 8.624,-7.201 8.263,-6.847C8.249,-6.834 8.232,-6.827 8.218,-6.816C8.23,-6.874 8.261,-6.913 8.291,-6.954C8.406,-7.119 8.53,-7.279 8.636,-7.45C8.791,-7.699 8.901,-7.968 8.953,-8.259C9.048,-8.779 8.859,-9.208 8.407,-9.477C8.289,-9.547 8.162,-9.604 8.032,-9.649C7.725,-9.758 7.403,-9.797 7.079,-9.809C6.208,-9.84 5.357,-9.697 4.52,-9.476C3.494,-9.207 2.52,-8.813 1.584,-8.319C1.426,-8.235 1.271,-8.143 1.113,-8.056C1.118,-8.046 1.123,-8.037 1.128,-8.028C1.17,-8.047 1.213,-8.064 1.254,-8.085C1.967,-8.463 2.711,-8.767 3.483,-9C4.27,-9.236 5.067,-9.392 5.893,-9.371C6.003,-9.369 6.112,-9.362 6.222,-9.357C6.173,-9.334 6.125,-9.335 6.078,-9.334C5.652,-9.328 5.232,-9.275 4.816,-9.19C3.419,-8.908 2.124,-8.369 0.926,-7.6C0.1,-7.072 -0.646,-6.446 -1.262,-5.675C-1.551,-5.312 -1.801,-4.926 -1.961,-4.488C-2.092,-4.134 -2.156,-3.772 -2.076,-3.396C-1.988,-2.977 -1.739,-2.681 -1.371,-2.476C-1.378,-2.5 -1.393,-2.518 -1.409,-2.535C-1.774,-2.879 -1.895,-3.304 -1.829,-3.793C-1.771,-4.218 -1.597,-4.596 -1.369,-4.952C-1.012,-5.511 -0.551,-5.977 -0.046,-6.404C-0.033,-6.415 -0.016,-6.423 0,-6.432M1.781,-9.545C1.662,-9.489 1.544,-9.432 1.424,-9.38C-0.86,-8.378 -2.917,-7.032 -4.742,-5.331C-5.758,-4.383 -6.663,-3.34 -7.376,-2.14C-7.79,-1.444 -8.131,-0.717 -8.325,0.073C-8.499,0.777 -8.55,1.486 -8.394,2.2C-8.212,3.033 -7.767,3.711 -7.146,4.28C-6.511,4.86 -5.774,5.276 -4.982,5.594C-4.143,5.933 -3.27,6.149 -2.377,6.291C-1.27,6.467 -0.153,6.531 0.969,6.509C2.062,6.489 3.148,6.398 4.231,6.241C7.125,5.821 9.919,5.033 12.628,3.942C15.498,2.786 18.195,1.314 20.676,-0.543C22.055,-1.576 23.337,-2.717 24.463,-4.026C24.535,-4.111 24.607,-4.196 24.678,-4.282C24.746,-4.363 24.812,-4.445 24.898,-4.516C24.875,-4.469 24.854,-4.42 24.828,-4.374C24.285,-3.395 23.616,-2.507 22.871,-1.674C21.621,-0.276 20.201,0.933 18.679,2.024C17.034,3.202 15.291,4.219 13.47,5.103C10.904,6.348 8.234,7.298 5.453,7.936C4.233,8.216 3.002,8.426 1.756,8.563C0.567,8.693 -0.624,8.748 -1.818,8.707C-3.352,8.656 -4.857,8.435 -6.312,7.918C-7.297,7.568 -8.218,7.095 -9.021,6.412C-9.601,5.918 -10.081,5.345 -10.365,4.627C-10.64,3.939 -10.736,3.226 -10.685,2.49C-10.607,1.392 -10.257,0.376 -9.766,-0.598C-9.232,-1.65 -8.547,-2.598 -7.777,-3.487C-6.533,-4.921 -5.112,-6.158 -3.574,-7.265C-2.491,-8.043 -1.352,-8.725 -0.162,-9.327C1.516,-10.177 3.261,-10.852 5.085,-11.317C6.197,-11.601 7.326,-11.787 8.474,-11.837C9.249,-11.871 10.021,-11.845 10.78,-11.655C11.121,-11.569 11.45,-11.452 11.755,-11.276C12.181,-11.031 12.514,-10.701 12.708,-10.243C12.717,-10.224 12.727,-10.206 12.751,-10.192C12.747,-10.221 12.746,-10.252 12.737,-10.28C12.616,-10.698 12.364,-11.025 12.019,-11.283C11.594,-11.6 11.105,-11.771 10.593,-11.879C9.973,-12.008 9.343,-12.038 8.709,-12.019C6.875,-11.968 5.107,-11.571 3.371,-11.008C2.154,-10.613 0.971,-10.136 -0.175,-9.569C-3.686,-7.83 -6.756,-5.515 -9.321,-2.544C-10.362,-1.339 -11.245,-0.026 -11.927,1.417C-12.364,2.342 -12.69,3.304 -12.856,4.316C-13.09,5.735 -13.004,7.127 -12.448,8.471C-12.441,8.489 -12.436,8.509 -12.444,8.541C-12.473,8.51 -12.504,8.482 -12.528,8.449C-13.05,7.77 -13.366,7.003 -13.501,6.16C-13.687,5.006 -13.538,3.878 -13.201,2.768C-12.834,1.561 -12.264,0.452 -11.574,-0.599C-10.547,-2.165 -9.316,-3.557 -7.943,-4.825C-5.955,-6.661 -3.777,-8.234 -1.393,-9.517C-0.507,-9.995 0.398,-10.433 1.324,-10.828C2.849,-11.479 4.409,-12.013 6.02,-12.401C7.124,-12.667 8.241,-12.861 9.373,-12.952C10.13,-13.013 10.889,-13.032 11.646,-12.956C12.34,-12.886 13.018,-12.741 13.655,-12.446C14.048,-12.264 14.405,-12.028 14.7,-11.706C15.245,-11.108 15.418,-10.398 15.316,-9.612C15.24,-9.008 15.007,-8.457 14.711,-7.932C14.283,-7.173 13.739,-6.505 13.138,-5.88C12.234,-4.941 11.205,-4.161 10.104,-3.474C8.624,-2.554 7.051,-1.837 5.395,-1.304C5.339,-1.286 5.283,-1.266 5.229,-1.247C5.221,-1.244 5.215,-1.234 5.187,-1.209C5.255,-1.225 5.301,-1.233 5.345,-1.245C7.071,-1.735 8.71,-2.431 10.265,-3.328C11.455,-4.014 12.564,-4.809 13.55,-5.769C14.283,-6.483 14.935,-7.262 15.438,-8.159C15.702,-8.634 15.905,-9.132 16.015,-9.667C16.262,-10.881 15.787,-11.966 14.73,-12.608C14.188,-12.937 13.595,-13.127 12.977,-13.245C12.086,-13.415 11.186,-13.436 10.282,-13.388C7.692,-13.25 5.207,-12.632 2.772,-11.771C1.979,-11.49 1.198,-11.176 0.426,-10.84C-1.378,-10.053 -3.11,-9.13 -4.778,-8.084C-4.806,-8.067 -4.832,-8.05 -4.859,-8.035C-4.868,-8.03 -4.88,-8.032 -4.932,-8.026C-4.863,-8.077 -4.824,-8.11 -4.782,-8.139C-3.856,-8.767 -2.9,-9.347 -1.921,-9.886C-1.039,-10.371 -0.141,-10.826 0.777,-11.238C3.173,-12.312 5.643,-13.158 8.218,-13.682C9.195,-13.881 10.18,-14.027 11.174,-14.114C11.963,-14.183 12.752,-14.217 13.542,-14.167C14.595,-14.103 15.627,-13.931 16.601,-13.502C17.041,-13.308 17.449,-13.064 17.808,-12.742C18.627,-12.007 18.945,-11.078 18.849,-9.997C18.764,-9.064 18.409,-8.222 17.938,-7.424C17.296,-6.332 16.478,-5.381 15.55,-4.523C14.404,-3.463 13.127,-2.582 11.774,-1.808C9.679,-0.609 7.462,0.294 5.123,0.896C4.044,1.174 2.949,1.377 1.84,1.481C0.955,1.564 0.071,1.581 -0.813,1.485C-1.635,1.396 -2.437,1.226 -3.191,0.881C-3.608,0.691 -4.001,0.461 -4.323,0.127C-4.864,-0.434 -5.087,-1.105 -5.018,-1.879C-4.974,-2.355 -4.834,-2.802 -4.641,-3.236C-4.613,-3.297 -4.587,-3.358 -4.579,-3.43C-4.59,-3.416 -4.604,-3.405 -4.612,-3.39C-4.893,-2.881 -5.11,-2.348 -5.206,-1.771C-5.398,-0.597 -5.013,0.335 -4.038,1.018C-3.47,1.416 -2.832,1.661 -2.169,1.837C-1.223,2.086 -0.259,2.168 0.715,2.167C1.982,2.165 3.232,2.009 4.472,1.76C6.707,1.312 8.852,0.592 10.911,-0.385C12.705,-1.235 14.396,-2.249 15.938,-3.507C17.223,-4.557 18.365,-5.739 19.268,-7.14C19.744,-7.88 20.129,-8.662 20.344,-9.52C20.52,-10.219 20.563,-10.923 20.392,-11.63C20.229,-12.292 19.89,-12.851 19.396,-13.319C18.819,-13.865 18.139,-14.232 17.394,-14.488C16.657,-14.741 15.899,-14.888 15.127,-14.969C14.504,-15.035 13.879,-15.062 13.253,-15.056C13.201,-15.055 13.149,-15.056 13.095,-15.081C13.249,-15.095 13.404,-15.111 13.559,-15.12C14.48,-15.175 15.402,-15.18 16.324,-15.097C17.251,-15.014 18.162,-14.852 19.046,-14.554C19.861,-14.278 20.62,-13.896 21.271,-13.322C22.037,-12.647 22.53,-11.813 22.7,-10.8C22.803,-10.181 22.764,-9.563 22.636,-8.951C22.435,-7.985 22.045,-7.094 21.554,-6.245C20.769,-4.889 19.771,-3.705 18.614,-2.651C16.981,-1.163 15.168,0.064 13.227,1.108C10.788,2.42 8.229,3.421 5.538,4.081C4.425,4.355 3.3,4.556 2.159,4.679C1.245,4.777 0.329,4.823 -0.588,4.796C-1.84,4.757 -3.072,4.6 -4.263,4.195C-4.966,3.957 -5.625,3.635 -6.212,3.175C-6.796,2.719 -7.23,2.16 -7.434,1.436C-7.617,0.788 -7.606,0.137 -7.47,-0.516C-7.301,-1.319 -6.965,-2.055 -6.544,-2.753C-5.956,-3.727 -5.228,-4.587 -4.41,-5.374C-3.012,-6.722 -1.453,-7.85 0.266,-8.755C0.729,-8.999 1.207,-9.217 1.677,-9.448C1.72,-9.469 1.79,-9.466 1.781,-9.545C1.841,-9.517 1.895,-9.522 1.951,-9.584C1.885,-9.569 1.833,-9.557 1.781,-9.545" style="fill:white;"/>
            </g>
            <g transform="matrix(4.16667,0,0,3.39993,7.00834,108.516)">
                <path d="M0,-1.525C0.05,-1.522 0.09,-1.517 0.132,-1.517C2.072,-1.517 4.013,-1.517 5.953,-1.519C6.069,-1.519 6.187,-1.532 6.301,-1.552C6.557,-1.596 6.785,-1.703 6.986,-1.869C7.361,-2.18 7.493,-2.58 7.395,-3.05C7.3,-3.497 7.001,-3.763 6.578,-3.902C6.354,-3.976 6.119,-3.982 5.887,-3.982C3.977,-3.983 2.068,-3.982 0.159,-3.982C0.108,-3.982 0.057,-3.976 0,-3.973L0,-1.525ZM0,2.457L0.191,2.457C0.773,2.457 1.357,2.458 1.941,2.457C3.271,2.456 4.603,2.457 5.935,2.452C6.323,2.45 6.707,2.404 7.066,2.242C7.42,2.082 7.65,1.82 7.708,1.432C7.729,1.291 7.729,1.144 7.715,1.003C7.66,0.509 7.4,0.171 6.926,0.005C6.683,-0.079 6.432,-0.118 6.176,-0.118C4.166,-0.12 2.155,-0.12 0.146,-0.121C0.101,-0.121 0.055,-0.115 0,-0.112L0,2.457ZM7.748,-0.903C7.813,-0.876 7.861,-0.857 7.908,-0.837C8.736,-0.494 9.179,0.136 9.278,1.017C9.32,1.388 9.312,1.758 9.216,2.122C9.092,2.592 8.828,2.966 8.43,3.242C8.052,3.504 7.625,3.643 7.181,3.731C6.763,3.814 6.34,3.847 5.915,3.847C3.502,3.848 1.09,3.847 -1.323,3.847L-1.53,3.847L-1.53,-5.361C-1.481,-5.365 -1.436,-5.372 -1.39,-5.372C1.087,-5.372 3.563,-5.373 6.04,-5.371C6.543,-5.371 7.033,-5.288 7.493,-5.078C8.193,-4.757 8.671,-4.24 8.85,-3.478C8.938,-3.101 8.947,-2.72 8.864,-2.342C8.753,-1.832 8.467,-1.434 8.057,-1.123C7.96,-1.05 7.861,-0.983 7.748,-0.903" style="fill:white;"/>
            </g>
            <g transform="matrix(4.16667,0,0,3.39993,163.145,95.0691)">
                <path d="M0,6.41L0,7.772C-0.117,7.81 -9.476,7.816 -9.641,7.779L-9.641,-1.406L-0.36,-1.406L-0.36,-0.032C-0.681,-0.021 -1.002,-0.029 -1.323,-0.028C-1.646,-0.026 -1.971,-0.027 -2.293,-0.027L-8.106,-0.027L-8.106,2.322L-2.753,2.322C-2.719,2.452 -2.712,3.508 -2.743,3.712L-8.105,3.712L-8.105,6.41L0,6.41Z" style="fill:white;"/>
            </g>
            <g transform="matrix(4.16667,0,0,3.39993,113.828,94.9752)">
                <path d="M0,6.44L0,7.819L-10.005,7.819C-10.01,7.768 -10.016,7.723 -10.016,7.677C-10.018,7.312 -10.013,6.945 -10.02,6.579C-10.021,6.471 -9.981,6.404 -9.902,6.338C-8.84,5.443 -7.78,4.544 -6.72,3.647C-5.331,2.472 -3.941,1.297 -2.554,0.122C-2.521,0.095 -2.49,0.066 -2.442,0.023C-2.49,0.013 -2.522,0.003 -2.555,0.001C-2.602,-0.002 -2.65,0.001 -2.697,0.001L-9.894,0.001L-9.894,-1.379L-0.351,-1.379C-0.347,-1.329 -0.342,-1.279 -0.342,-1.227C-0.341,-0.872 -0.347,-0.517 -0.339,-0.161C-0.335,-0.038 -0.378,0.042 -0.471,0.12C-1.668,1.128 -2.861,2.14 -4.056,3.149C-5.307,4.209 -6.559,5.267 -7.81,6.325C-7.84,6.352 -7.87,6.382 -7.931,6.44L0,6.44Z" style="fill:white;"/>
            </g>
            <g transform="matrix(4.16667,0,0,3.39993,160.483,164.293)">
                <path d="M0,-2.491C-0.195,-2.59 -0.37,-2.689 -0.554,-2.77C-1.183,-3.049 -1.846,-3.136 -2.527,-3.072C-2.742,-3.052 -2.958,-3.012 -3.168,-2.963C-3.272,-2.937 -3.378,-2.882 -3.463,-2.815C-3.669,-2.654 -3.646,-2.386 -3.415,-2.267C-3.3,-2.208 -3.169,-2.163 -3.04,-2.148C-2.504,-2.085 -1.965,-2.035 -1.429,-1.978C-1.049,-1.936 -0.673,-1.874 -0.307,-1.758C-0.207,-1.725 -0.106,-1.69 -0.01,-1.648C0.528,-1.42 0.849,-1.022 0.916,-0.437C1.001,0.308 0.746,0.984 0.039,1.396C-0.187,1.528 -0.43,1.618 -0.682,1.683C-1.224,1.82 -1.773,1.833 -2.326,1.804C-2.96,1.771 -3.574,1.638 -4.151,1.36C-4.481,1.2 -4.784,0.999 -5.066,0.736C-5.019,0.663 -4.972,0.593 -4.926,0.524C-4.809,0.347 -4.691,0.171 -4.573,-0.006C-4.464,-0.168 -4.379,-0.185 -4.224,-0.07C-3.839,0.215 -3.414,0.414 -2.948,0.519C-2.321,0.661 -1.69,0.687 -1.058,0.537C-0.877,0.494 -0.707,0.421 -0.557,0.306C-0.458,0.23 -0.38,0.138 -0.345,0.016C-0.282,-0.203 -0.354,-0.396 -0.544,-0.524C-0.702,-0.63 -0.88,-0.685 -1.065,-0.704C-1.445,-0.743 -1.826,-0.773 -2.205,-0.8C-2.659,-0.833 -3.116,-0.846 -3.562,-0.96C-3.777,-1.015 -3.986,-1.09 -4.181,-1.202C-4.579,-1.434 -4.782,-1.789 -4.822,-2.24C-4.884,-2.927 -4.619,-3.458 -4.038,-3.83C-3.682,-4.057 -3.287,-4.176 -2.874,-4.228C-2.114,-4.324 -1.361,-4.296 -0.622,-4.079C-0.207,-3.957 0.179,-3.772 0.525,-3.512C0.667,-3.407 0.679,-3.315 0.569,-3.182C0.382,-2.952 0.192,-2.724 0,-2.491" style="fill:white;"/>
            </g>
            <g transform="matrix(4.16667,0,0,3.39993,120.066,165.845)">
                <path d="M0,-3.365L0,-2.401L2.545,-2.401C2.582,-2.401 2.619,-2.403 2.656,-2.401C2.77,-2.395 2.844,-2.326 2.845,-2.212C2.849,-1.93 2.849,-1.649 2.845,-1.368C2.844,-1.25 2.775,-1.183 2.659,-1.176C2.623,-1.174 2.585,-1.176 2.549,-1.176L0.022,-1.176C-0.011,-1.054 -0.02,-0.214 0.011,0.009L3.964,0.009C4.007,0.009 4.049,0.008 4.091,0.01C4.202,0.016 4.275,0.077 4.276,0.184C4.281,0.476 4.28,0.768 4.276,1.059C4.275,1.157 4.201,1.221 4.104,1.228C4.076,1.231 4.05,1.229 4.022,1.229L-0.926,1.229C-0.957,1.229 -0.989,1.232 -1.021,1.228C-1.109,1.219 -1.177,1.154 -1.187,1.066C-1.189,1.029 -1.187,0.991 -1.187,0.954L-1.187,-4.312C-1.187,-4.354 -1.19,-4.397 -1.185,-4.439C-1.174,-4.512 -1.099,-4.584 -1.024,-4.593C-0.988,-4.597 -0.951,-4.595 -0.914,-4.595L3.891,-4.595C4.021,-4.59 4.099,-4.517 4.1,-4.388C4.102,-4.118 4.102,-3.848 4.1,-3.577C4.099,-3.439 4.024,-3.369 3.882,-3.365C3.845,-3.364 3.807,-3.365 3.771,-3.365L0,-3.365Z" style="fill:white;"/>
            </g>
            <g transform="matrix(4.16667,0,0,3.39993,4.97,165.832)">
                <path d="M0,-3.361L0,-2.403C0.056,-2.402 0.11,-2.397 0.166,-2.397C0.973,-2.397 1.779,-2.398 2.585,-2.397C2.637,-2.397 2.695,-2.4 2.739,-2.377C2.813,-2.339 2.848,-2.272 2.846,-2.18C2.841,-1.916 2.846,-1.65 2.843,-1.385C2.842,-1.237 2.779,-1.174 2.631,-1.172C2.455,-1.17 2.28,-1.172 2.104,-1.172L0.001,-1.172L0.001,0.008C0.063,0.01 0.124,0.013 0.185,0.013L3.973,0.013C4.016,0.013 4.058,0.011 4.101,0.014C4.198,0.021 4.272,0.086 4.273,0.183C4.277,0.475 4.277,0.766 4.273,1.058C4.272,1.166 4.2,1.226 4.089,1.233C4.062,1.234 4.036,1.233 4.01,1.233L-0.924,1.233C-0.954,1.233 -0.987,1.236 -1.018,1.232C-1.116,1.224 -1.181,1.158 -1.188,1.059C-1.192,1.027 -1.19,0.995 -1.19,0.964L-1.19,-4.319C-1.19,-4.391 -1.211,-4.473 -1.138,-4.525C-1.097,-4.553 -1.048,-4.57 -1.001,-4.59C-0.987,-4.595 -0.97,-4.591 -0.954,-4.591L3.852,-4.591C3.915,-4.591 3.978,-4.597 4.027,-4.541C4.069,-4.497 4.099,-4.455 4.098,-4.39C4.096,-4.114 4.099,-3.838 4.097,-3.563C4.096,-3.442 4.018,-3.367 3.899,-3.361C3.857,-3.359 3.814,-3.361 3.772,-3.361L0,-3.361Z" style="fill:white;"/>
            </g>
            <g transform="matrix(4.16667,0,0,3.39993,63.4617,166.366)">
                <path d="M0,-3.727C-0.215,-3.697 -0.433,-3.684 -0.643,-3.634C-1.494,-3.431 -2.301,-2.67 -2.061,-1.437C-1.921,-0.722 -1.453,-0.29 -0.773,-0.08C-0.362,0.047 0.062,0.054 0.487,-0.013C1.32,-0.144 1.999,-0.724 2.084,-1.619C2.146,-2.277 1.951,-2.833 1.428,-3.255C1.012,-3.591 0.526,-3.71 0,-3.727M0.021,1.24C-0.625,1.245 -1.23,1.128 -1.778,0.807C-2.846,0.182 -3.359,-0.758 -3.312,-1.993C-3.266,-3.165 -2.669,-3.997 -1.659,-4.547C-1.057,-4.874 -0.401,-4.972 0.28,-4.927C0.908,-4.885 1.486,-4.703 2.004,-4.341C2.666,-3.879 3.119,-3.267 3.261,-2.462C3.615,-0.449 2.316,0.808 0.953,1.136C0.642,1.21 0.326,1.244 0.021,1.24" style="fill:white;"/>
            </g>
            <g transform="matrix(4.16667,0,0,3.39993,38.3642,165.839)">
                <path d="M0,-3.363L0,0.922C0,0.959 0.001,0.996 0,1.033C-0.005,1.158 -0.072,1.229 -0.195,1.23C-0.46,1.233 -0.726,1.234 -0.99,1.23C-1.11,1.229 -1.172,1.164 -1.178,1.043C-1.179,1.001 -1.179,0.958 -1.179,0.916L-1.179,-3.363L-3.24,-3.363C-3.288,-3.363 -3.343,-3.355 -3.382,-3.373C-3.447,-3.406 -3.502,-3.455 -3.502,-3.544C-3.499,-3.83 -3.503,-4.116 -3.499,-4.403C-3.499,-4.517 -3.426,-4.586 -3.313,-4.592C-3.292,-4.593 -3.271,-4.593 -3.249,-4.593L2.063,-4.593C2.105,-4.593 2.149,-4.597 2.189,-4.588C2.265,-4.57 2.326,-4.476 2.326,-4.379C2.327,-4.119 2.327,-3.859 2.326,-3.6C2.326,-3.426 2.263,-3.363 2.087,-3.363C1.456,-3.362 0.825,-3.363 0.194,-3.363L0,-3.363Z" style="fill:white;"/>
            </g>
            <g transform="matrix(4.16667,0,0,3.39993,96.7017,154.377)">
                <path d="M0,3.382L3.445,3.382C3.487,3.382 3.53,3.381 3.572,3.382C3.685,3.389 3.756,3.461 3.758,3.575C3.76,3.85 3.76,4.126 3.758,4.402C3.756,4.528 3.688,4.596 3.565,4.602C3.544,4.603 3.522,4.602 3.502,4.602L-0.922,4.602C-0.954,4.602 -0.985,4.605 -1.018,4.601C-1.104,4.592 -1.171,4.526 -1.181,4.436C-1.184,4.399 -1.182,4.362 -1.182,4.325L-1.182,-0.941C-1.182,-0.968 -1.183,-0.994 -1.182,-1.021C-1.175,-1.144 -1.105,-1.22 -0.985,-1.221C-0.725,-1.223 -0.466,-1.223 -0.206,-1.221C-0.077,-1.22 -0.005,-1.143 0,-1.013C0.003,-0.955 0,-0.896 0,-0.838L0,3.382Z" style="fill:white;"/>
            </g>
            <g transform="matrix(4.16667,0,0,3.39993,147.442,188.453)">
                <path d="M0,-3.2C-0.033,-3.013 -0.026,-1.873 0.009,-1.752C0.048,-1.75 0.091,-1.746 0.132,-1.746C0.842,-1.746 1.551,-1.745 2.261,-1.747C2.366,-1.747 2.473,-1.753 2.578,-1.766C2.898,-1.806 3.096,-2.006 3.133,-2.324C3.182,-2.716 3.04,-3.012 2.747,-3.133C2.718,-3.145 2.688,-3.158 2.658,-3.164C2.569,-3.179 2.479,-3.2 2.392,-3.201C1.619,-3.206 0.846,-3.207 0.073,-3.209C0.047,-3.209 0.022,-3.203 0,-3.2M2.797,-1.079C3.147,-0.494 3.494,0.088 3.843,0.672C3.824,0.685 3.813,0.7 3.8,0.7C3.589,0.702 3.376,0.701 3.164,0.706C3.074,0.708 3.048,0.645 3.013,0.588C2.721,0.114 2.429,-0.361 2.135,-0.833C1.965,-1.105 2.056,-1.052 1.74,-1.054C1.221,-1.057 0.701,-1.055 0.182,-1.055L-0.007,-1.055C-0.029,-0.857 -0.017,-0.668 -0.019,-0.48C-0.021,-0.284 -0.019,-0.088 -0.019,0.109L-0.019,0.702C-0.245,0.706 -0.459,0.708 -0.68,0.701L-0.68,-3.889C-0.636,-3.894 -0.596,-3.903 -0.556,-3.903C0.473,-3.903 1.502,-3.908 2.53,-3.902C3.239,-3.898 3.741,-3.426 3.812,-2.72C3.834,-2.492 3.835,-2.265 3.783,-2.04C3.673,-1.564 3.388,-1.254 2.916,-1.119C2.881,-1.109 2.847,-1.096 2.797,-1.079" style="fill:white;"/>
            </g>
            <g transform="matrix(4.16667,0,0,3.39993,35.9958,74.7776)">
                <path d="M0,1.116C-0.391,0.374 -0.769,-0.346 -1.158,-1.089C-1.556,-0.343 -1.94,0.378 -2.334,1.116L0,1.116ZM1.762,2.854L1.528,2.854C1.375,2.854 1.22,2.848 1.066,2.855C0.958,2.861 0.895,2.829 0.845,2.725C0.725,2.471 0.591,2.224 0.461,1.975C0.435,1.924 0.406,1.874 0.377,1.821L0.211,1.821C-0.707,1.821 -1.624,1.824 -2.542,1.817C-2.674,1.817 -2.74,1.861 -2.794,1.974C-2.919,2.233 -3.058,2.483 -3.184,2.74C-3.224,2.822 -3.271,2.859 -3.366,2.856C-3.594,2.849 -3.82,2.854 -4.05,2.854C-4.03,2.724 -1.9,-1.338 -1.644,-1.745L-0.673,-1.745C0.131,-0.227 0.937,1.295 1.762,2.854" style="fill:white;"/>
            </g>
            <g transform="matrix(4.16667,0,0,3.39993,54.9863,133.273)">
                <path d="M0,0.895L1.967,0.895C1.639,0.284 1.32,-0.31 0.985,-0.932C0.652,-0.313 0.332,0.28 0,0.895M3.751,2.522L2.854,2.522C2.7,2.237 2.539,1.939 2.379,1.644L-0.414,1.644C-0.568,1.929 -0.727,2.223 -0.887,2.522L-1.757,2.522C-1.736,2.412 0.278,-1.322 0.483,-1.627L1.491,-1.627C2.239,-0.253 2.99,1.126 3.751,2.522" style="fill:white;"/>
            </g>
            <g transform="matrix(4.16667,0,0,3.39993,73.2233,142.46)">
                <path d="M0,-4.329L0.799,-4.329C0.801,-4.267 0.806,-4.211 0.806,-4.155C0.807,-3.391 0.807,-2.628 0.807,-1.865C0.807,-1.801 0.807,-1.737 0.809,-1.674C0.817,-1.385 0.947,-1.168 1.196,-1.022C1.382,-0.912 1.585,-0.856 1.797,-0.827C2.283,-0.759 2.769,-0.756 3.249,-0.872C3.356,-0.898 3.463,-0.938 3.562,-0.986C3.861,-1.131 4.017,-1.371 4.017,-1.708C4.017,-2.397 4.019,-3.086 4.019,-3.776L4.019,-4.325L4.817,-4.325C4.823,-4.29 4.834,-4.251 4.834,-4.211C4.836,-3.315 4.838,-2.419 4.834,-1.523C4.834,-1.169 4.686,-0.878 4.422,-0.645C4.106,-0.367 3.734,-0.212 3.327,-0.132C2.657,0 1.988,-0.006 1.325,-0.172C0.981,-0.259 0.668,-0.408 0.4,-0.646C0.133,-0.885 -0.01,-1.181 -0.01,-1.542L-0.01,-4.183C-0.01,-4.228 -0.003,-4.275 0,-4.329" style="fill:white;"/>
            </g>
            <g transform="matrix(4.16667,0,0,3.39993,63.0346,102.36)">
                <path d="M0,5.647L-1.515,5.647L-1.515,0.33C-1.294,0.226 -1.069,0.117 -0.844,0.015C-0.81,0 -0.757,0 -0.723,0.016C-0.482,0.125 -0.243,0.239 0,0.354L0,5.647Z" style="fill:white;"/>
            </g>
            <g transform="matrix(4.16667,0,0,3.39993,107.045,136.57)">
                <path d="M0,-1.041C0.108,-1.146 0.216,-1.248 0.319,-1.352C0.708,-1.737 1.096,-2.121 1.479,-2.51C1.549,-2.581 1.618,-2.608 1.716,-2.606C1.995,-2.601 2.276,-2.604 2.597,-2.604C2.241,-2.232 1.893,-1.904 1.555,-1.568C1.215,-1.232 0.874,-0.899 0.517,-0.55C1.229,0.146 1.937,0.838 2.647,1.53C2.645,1.541 2.641,1.551 2.637,1.561L2.438,1.561C2.23,1.561 2.023,1.556 1.817,1.563C1.697,1.567 1.611,1.533 1.523,1.447C1.045,0.967 0.558,0.493 0.074,0.018C0.052,-0.004 0.027,-0.024 -0.003,-0.052C-0.036,-0.023 -0.069,0.001 -0.098,0.029C-0.586,0.509 -1.075,0.987 -1.56,1.469C-1.625,1.533 -1.688,1.564 -1.781,1.563C-2.067,1.558 -2.353,1.561 -2.679,1.561C-2.308,1.183 -1.946,0.845 -1.594,0.5C-1.239,0.152 -0.882,-0.193 -0.519,-0.546C-1.213,-1.228 -1.897,-1.899 -2.601,-2.587C-2.542,-2.595 -2.509,-2.603 -2.476,-2.603C-2.222,-2.604 -1.967,-2.601 -1.712,-2.606C-1.619,-2.608 -1.554,-2.577 -1.49,-2.512C-1.021,-2.044 -0.55,-1.578 -0.079,-1.112C-0.057,-1.09 -0.031,-1.07 0,-1.041" style="fill:white;"/>
            </g>
            <g transform="matrix(4.16667,0,0,3.39993,137.485,184.443)">
                <path d="M0,-0.856L0,-0.161L-2.337,-0.161L-2.337,1.88C-2.564,1.887 -2.778,1.886 -2.999,1.881L-2.999,-2.697C-2.888,-2.73 0.759,-2.743 1.027,-2.71L1.027,-2.033L-2.33,-2.033L-2.33,-0.856L0,-0.856Z" style="fill:white;"/>
            </g>
            <g transform="matrix(4.16667,0,0,3.39993,54.6117,89.2487)">
                <path d="M0,3.802C0.035,3.515 0.068,3.248 0.102,2.981C0.118,2.844 0.13,2.706 0.152,2.571C0.168,2.484 0.142,2.422 0.081,2.358C-0.172,2.094 -0.42,1.825 -0.67,1.558C-0.694,1.532 -0.717,1.503 -0.758,1.455C-0.578,1.418 -0.417,1.384 -0.255,1.352C-0.017,1.305 0.223,1.26 0.464,1.218C0.543,1.203 0.593,1.168 0.632,1.095C0.802,0.777 0.979,0.463 1.153,0.148C1.178,0.103 1.205,0.06 1.24,0C1.437,0.354 1.625,0.685 1.802,1.023C1.867,1.146 1.944,1.209 2.087,1.232C2.464,1.293 2.836,1.374 3.228,1.45C3.197,1.491 3.176,1.525 3.148,1.554C2.9,1.822 2.652,2.092 2.397,2.353C2.325,2.427 2.311,2.497 2.323,2.594C2.375,2.961 2.419,3.33 2.466,3.697C2.47,3.723 2.469,3.75 2.471,3.793C2.424,3.777 2.386,3.768 2.352,3.752C2.039,3.607 1.726,3.467 1.418,3.311C1.293,3.249 1.192,3.242 1.065,3.308C0.768,3.46 0.462,3.594 0.16,3.736C0.114,3.757 0.066,3.774 0,3.802" style="fill:white;"/>
            </g>
            <g transform="matrix(4.16667,0,0,3.39993,0.0708377,84.4392)">
                <path d="M0,-4.588L0.757,-4.588L0.757,-0.688L4.309,-0.688L4.309,0L0,0L0,-4.588Z" style="fill:white;"/>
            </g>
            <g transform="matrix(4.16667,0,0,3.39993,81.4996,169.107)">
                <path d="M0,-3.087C0.173,-3.166 0.339,-3.237 0.499,-3.317C0.578,-3.358 0.644,-3.356 0.722,-3.315C0.862,-3.243 1.007,-3.18 1.159,-3.109C1.161,-3.069 1.167,-3.029 1.169,-2.988L1.169,0.031C1.169,0.211 1.111,0.269 0.936,0.27C0.687,0.271 0.437,0.271 0.187,0.269C0.059,0.268 -0.008,0.204 -0.008,0.076C-0.01,-0.967 -0.008,-2.011 -0.007,-3.054C-0.007,-3.064 -0.002,-3.075 0,-3.087" style="fill:white;"/>
            </g>
            <g transform="matrix(4.16667,0,0,3.39993,87.1558,148.966)">
                <path d="M0,2.283C-0.058,2.262 -0.097,2.252 -0.134,2.235C-0.301,2.158 -0.47,2.081 -0.636,1.998C-0.712,1.958 -0.778,1.954 -0.858,1.995C-1.033,2.084 -1.212,2.164 -1.39,2.246C-1.418,2.259 -1.447,2.265 -1.493,2.279C-1.477,2.129 -1.461,1.993 -1.446,1.857C-1.433,1.732 -1.38,1.593 -1.415,1.484C-1.45,1.373 -1.573,1.29 -1.658,1.196C-1.75,1.096 -1.845,0.995 -1.955,0.876C-1.847,0.852 -1.762,0.831 -1.676,0.814C-1.541,0.788 -1.406,0.762 -1.271,0.74C-1.187,0.725 -1.129,0.69 -1.089,0.609C-1.006,0.443 -0.912,0.283 -0.821,0.121C-0.802,0.086 -0.777,0.053 -0.744,0C-0.638,0.19 -0.53,0.36 -0.447,0.54C-0.385,0.676 -0.294,0.737 -0.147,0.754C0.02,0.773 0.185,0.814 0.352,0.846C0.381,0.852 0.409,0.867 0.451,0.884C0.3,1.048 0.161,1.209 0.01,1.354C-0.084,1.443 -0.099,1.535 -0.081,1.652C-0.052,1.855 -0.028,2.059 0,2.283" style="fill:white;"/>
            </g>
            <g transform="matrix(4.16667,0,0,3.39993,15.175,148.685)">
                <path d="M0,-1.349C-0.329,-0.844 -0.663,-0.329 -1.005,0.197C-1.165,0.197 -1.328,0.201 -1.492,0.196C-1.601,0.193 -1.676,0.077 -1.64,-0.029C-1.572,-0.225 -1.5,-0.418 -1.43,-0.613C-1.319,-0.915 -1.21,-1.219 -1.092,-1.539L-0.873,-1.539C-0.666,-1.539 -0.46,-1.529 -0.252,-1.542C-0.111,-1.55 -0.033,-1.5 0,-1.349" style="fill:white;"/>
            </g>
            <g transform="matrix(0,3.39993,4.16667,0,119.963,191.148)">
                <rect x="-0.771" y="-0.771" width="0.664" height="0.845" style="fill:white;"/>
            </g>
        </g>
    </g>
</svg>
